# xmcd
#
# Track frame offsets: 
#        150
#        23177
#        42427
#        71652
#        96472
#        118592
#        143475
#        164432
#        188957
#        212085
#        234867
#
# Disc length: 3508 seconds
#
# Revision: 0
# Processed by: cddbd v1.5.2PL0 Copyright (c) Steve Scherf et al.
# Submitted via: ExactAudioCopy v1.0b3
#
DISCID=990db20b
DTITLE=David Jacobson - Keep It Simple
DYEAR=1993
DGENRE=Contemporary Christian
TTITLE0=By Faith
TTITLE1=Teachers
TTITLE2=But A Broken Heartbeat Away
TTITLE3=Come Home
TTITLE4=Be Still
TTITLE5=Keep It Simple
TTITLE6=I Know What it Means
TTITLE7=Forever
TTITLE8=Something More...
TTITLE9=Dave's Song
TTITLE10=When The Walls Come Down
EXTD=
EXTT0=
EXTT1=
EXTT2=
EXTT3=
EXTT4=
EXTT5=
EXTT6=
EXTT7=
EXTT8=
EXTT9=
EXTT10=
PLAYORDER=
